<svg fill="#2f7d63" xmlns="http://www.w3.org/2000/svg"  viewBox="0 0 24 24" width="24px" height="24px"><path d="M 9.0371094 2 L 8.5371094 3 L 4.2050781 3 L 4.203125 2.9550781 L 3.4707031 3 L 2.75 3 L 2 3 L 2 4.5 L 2.75 4.5 L 2.7949219 4.5 L 3.7949219 21 L 20.205078 21 L 21.205078 4.5 L 21.25 4.5 L 22 4.5 L 22 3 L 21.25 3 L 20.529297 3 L 19.796875 2.9550781 L 19.794922 3 L 15.462891 3 L 14.962891 2 L 9.0371094 2 z M 9.9628906 3.5 L 14.037109 3.5 L 14.537109 4.5 L 19.703125 4.5 L 18.794922 19.5 L 5.2050781 19.5 L 4.296875 4.5 L 9.4628906 4.5 L 9.9628906 3.5 z M 8.4570312 6.7089844 L 6.9589844 6.7929688 L 7.0019531 7.5410156 L 7.5019531 16.541016 L 7.5429688 17.291016 L 9.0410156 17.207031 L 8.9980469 16.458984 L 8.4980469 7.4589844 L 8.4570312 6.7089844 z M 15.542969 6.7089844 L 15.501953 7.4589844 L 15.001953 16.458984 L 14.958984 17.207031 L 16.457031 17.291016 L 16.498047 16.541016 L 16.998047 7.5410156 L 17.041016 6.7929688 L 15.542969 6.7089844 z"/></svg>